<?xml version="1.0" encoding="UTF-8"?>
<svg id="_图层_1" data-name=" 图层 1" xmlns="http://www.w3.org/2000/svg" viewBox="0 0 449.99 481.83">
  <defs>
    <style>
      .cls-1 {
        fill: #3491cf;
      }
    </style>
  </defs>
  <path class="cls-1" d="M378.13,335.88v3.74c0,40.42,.05,80.84-.04,121.26-.02,8.82-4.12,15.44-12.25,19.03-8.01,3.54-15.51,2.1-22.02-3.69-4.76-4.23-6.62-9.77-6.61-16.07,.02-40.1,.01-80.2,.01-120.29v-4.04c-28.81-7.46-50.22-24.13-63.07-51.02-9.41-19.7-11.31-40.4-6.01-61.55,10.49-41.86,48.46-71.43,92.45-69.8,44.57,1.64,81.15,34.17,88.16,76.76,7.98,48.44-23.39,95.27-70.63,105.69v-.02Zm-17.31-152.07c-2.23,.25-4.45,.48-6.68,.74-32.73,3.75-58.63,33.27-58.15,66.28,.12,8.56,6.78,15.32,15.19,15.43,8.64,.11,15.43-6.47,15.81-15.17,.12-2.76,.33-5.56,.95-8.24,3.8-16.38,17.55-27.4,34.66-27.93,7.46-.23,13.05-4.46,15.1-11.14,2.85-9.32-4.16-20.81-16.87-19.96h-.01Z"/>
  <g>
    <path class="cls-1" d="M325.08,363.56v-4.74c-20.17-4.48-38.13-14.29-52.64-27.73v12.06c-1.78-.46-3.14-.73-4.44-1.16-33.7-11.26-67.38-22.58-101.11-33.74-2.76-.91-3.65-2.09-3.64-5.02,.09-78.01,.07-156.02,.07-234.03v-4.19c1.79,.46,3.15,.72,4.45,1.16,33.7,11.26,67.37,22.57,101.1,33.74,2.75,.91,3.65,2.07,3.65,5.01-.02,17.59-.02,35.17-.03,52.76,21.08-19.32,49.18-30.75,79.77-30.58,32.29,.18,62.23,14.4,83.44,37.13,0-44.95,.02-89.9,.01-134.85,0-23.48-20.37-36.04-41.43-25.54-30.8,15.37-61.61,30.73-92.34,46.25-3.2,1.62-5.87,1.73-9.2,.61C244.18,34.37,195.56,18.22,147.01,1.88c-8.56-2.88-16.59-2.52-24.67,1.53C87.29,21.03,52.21,38.58,17.1,56.06,5.49,61.84-.03,70.96,0,83.96c.13,49.08,.05,98.16,.05,147.24s-.11,98.73,.16,148.09c.03,5.17,1.31,10.86,3.72,15.39,6.96,13.05,22.73,17.04,36.89,9.98,30.93-15.42,61.85-30.89,92.71-46.45,3.26-1.65,6.07-1.93,9.61-.74,48.28,16.22,96.65,32.17,144.9,48.47,9.39,3.17,17.87,2.48,26.6-1.93,3.48-1.76,6.96-3.5,10.43-5.26v-35.2h.01Z"/>
    <path class="cls-1" d="M325.08,363.56v-4.74c-20.17-4.48-38.13-14.29-52.64-27.73v12.06c-1.78-.46-3.14-.73-4.44-1.16-33.7-11.26-67.38-22.58-101.11-33.74-2.76-.91-3.65-2.09-3.64-5.02,.09-78.01,.07-156.02,.07-234.03v-4.19c1.79,.46,3.15,.72,4.45,1.16,33.7,11.26,67.37,22.57,101.1,33.74,2.75,.91,3.65,2.07,3.65,5.01-.02,17.59-.02,35.17-.03,52.76,21.08-19.32,49.18-30.75,79.77-30.58,32.29,.18,62.23,14.4,83.44,37.13,0-44.95,.02-89.9,.01-134.85,0-23.48-20.37-36.04-41.43-25.54-30.8,15.37-61.61,30.73-92.34,46.25-3.2,1.62-5.87,1.73-9.2,.61C244.18,34.37,195.56,18.22,147.01,1.88c-8.56-2.88-16.59-2.52-24.67,1.53C87.29,21.03,52.21,38.58,17.1,56.06,5.49,61.84-.03,70.96,0,83.96c.13,49.08,.05,98.16,.05,147.24s-.11,98.73,.16,148.09c.03,5.17,1.31,10.86,3.72,15.39,6.96,13.05,22.73,17.04,36.89,9.98,30.93-15.42,61.85-30.89,92.71-46.45,3.26-1.65,6.07-1.93,9.61-.74,48.28,16.22,96.65,32.17,144.9,48.47,9.39,3.17,17.87,2.48,26.6-1.93,3.48-1.76,6.96-3.5,10.43-5.26v-35.2h.01Z"/>
    <path class="cls-1" d="M325.08,363.56v-4.74c-20.17-4.48-38.13-14.29-52.64-27.73v12.06c-1.78-.46-3.14-.73-4.44-1.16-33.7-11.26-67.38-22.58-101.11-33.74-2.76-.91-3.65-2.09-3.64-5.02,.09-78.01,.07-156.02,.07-234.03v-4.19c1.79,.46,3.15,.72,4.45,1.16,33.7,11.26,67.37,22.57,101.1,33.74,2.75,.91,3.65,2.07,3.65,5.01-.02,17.59-.02,35.17-.03,52.76,21.08-19.32,49.18-30.75,79.77-30.58,32.29,.18,62.23,14.4,83.44,37.13,0-44.95,.02-89.9,.01-134.85,0-23.48-20.37-36.04-41.43-25.54-30.8,15.37-61.61,30.73-92.34,46.25-3.2,1.62-5.87,1.73-9.2,.61C244.18,34.37,195.56,18.22,147.01,1.88c-8.56-2.88-16.59-2.52-24.67,1.53C87.29,21.03,52.21,38.58,17.1,56.06,5.49,61.84-.03,70.96,0,83.96c.13,49.08,.05,98.16,.05,147.24s-.11,98.73,.16,148.09c.03,5.17,1.31,10.86,3.72,15.39,6.96,13.05,22.73,17.04,36.89,9.98,30.93-15.42,61.85-30.89,92.71-46.45,3.26-1.65,6.07-1.93,9.61-.74,48.28,16.22,96.65,32.17,144.9,48.47,9.39,3.17,17.87,2.48,26.6-1.93,3.48-1.76,6.96-3.5,10.43-5.26v-35.2h.01Z"/>
    <path class="cls-1" d="M325.08,363.56v-4.74c-20.17-4.48-38.13-14.29-52.64-27.73v12.06c-1.78-.46-3.14-.73-4.44-1.16-33.7-11.26-67.38-22.58-101.11-33.74-2.76-.91-3.65-2.09-3.64-5.02,.09-78.01,.07-156.02,.07-234.03v-4.19c1.79,.46,3.15,.72,4.45,1.16,33.7,11.26,67.37,22.57,101.1,33.74,2.75,.91,3.65,2.07,3.65,5.01-.02,17.59-.02,35.17-.03,52.76,21.08-19.32,49.18-30.75,79.77-30.58,32.29,.18,62.23,14.4,83.44,37.13,0-44.95,.02-89.9,.01-134.85,0-23.48-20.37-36.04-41.43-25.54-30.8,15.37-61.61,30.73-92.34,46.25-3.2,1.62-5.87,1.73-9.2,.61C244.18,34.37,195.56,18.22,147.01,1.88c-8.56-2.88-16.59-2.52-24.67,1.53C87.29,21.03,52.21,38.58,17.1,56.06,5.49,61.84-.03,70.96,0,83.96c.13,49.08,.05,98.16,.05,147.24s-.11,98.73,.16,148.09c.03,5.17,1.31,10.86,3.72,15.39,6.96,13.05,22.73,17.04,36.89,9.98,30.93-15.42,61.85-30.89,92.71-46.45,3.26-1.65,6.07-1.93,9.61-.74,48.28,16.22,96.65,32.17,144.9,48.47,9.39,3.17,17.87,2.48,26.6-1.93,3.48-1.76,6.96-3.5,10.43-5.26v-35.2h.01Z"/>
    <path class="cls-1" d="M325.08,363.56v-4.74c-20.17-4.48-38.13-14.29-52.64-27.73v12.06c-1.78-.46-3.14-.73-4.44-1.16-33.7-11.26-67.38-22.58-101.11-33.74-2.76-.91-3.65-2.09-3.64-5.02,.09-78.01,.07-156.02,.07-234.03v-4.19c1.79,.46,3.15,.72,4.45,1.16,33.7,11.26,67.37,22.57,101.1,33.74,2.75,.91,3.65,2.07,3.65,5.01-.02,17.59-.02,35.17-.03,52.76,21.08-19.32,49.18-30.75,79.77-30.58,32.29,.18,62.23,14.4,83.44,37.13,0-44.95,.02-89.9,.01-134.85,0-23.48-20.37-36.04-41.43-25.54-30.8,15.37-61.61,30.73-92.34,46.25-3.2,1.62-5.87,1.73-9.2,.61C244.18,34.37,195.56,18.22,147.01,1.88c-8.56-2.88-16.59-2.52-24.67,1.53C87.29,21.03,52.21,38.58,17.1,56.06,5.49,61.84-.03,70.96,0,83.96c.13,49.08,.05,98.16,.05,147.24s-.11,98.73,.16,148.09c.03,5.17,1.31,10.86,3.72,15.39,6.96,13.05,22.73,17.04,36.89,9.98,30.93-15.42,61.85-30.89,92.71-46.45,3.26-1.65,6.07-1.93,9.61-.74,48.28,16.22,96.65,32.17,144.9,48.47,9.39,3.17,17.87,2.48,26.6-1.93,3.48-1.76,6.96-3.5,10.43-5.26v-35.2h.01Z"/>
    <path class="cls-1" d="M325.08,363.56v-4.74c-20.17-4.48-38.13-14.29-52.64-27.73v12.06c-1.78-.46-3.14-.73-4.44-1.16-33.7-11.26-67.38-22.58-101.11-33.74-2.76-.91-3.65-2.09-3.64-5.02,.09-78.01,.07-156.02,.07-234.03v-4.19c1.79,.46,3.15,.72,4.45,1.16,33.7,11.26,67.37,22.57,101.1,33.74,2.75,.91,3.65,2.07,3.65,5.01-.02,17.59-.02,35.17-.03,52.76,21.08-19.32,49.18-30.75,79.77-30.58,32.29,.18,62.23,14.4,83.44,37.13,0-44.95,.02-89.9,.01-134.85,0-23.48-20.37-36.04-41.43-25.54-30.8,15.37-61.61,30.73-92.34,46.25-3.2,1.62-5.87,1.73-9.2,.61C244.18,34.37,195.56,18.22,147.01,1.88c-8.56-2.88-16.59-2.52-24.67,1.53C87.29,21.03,52.21,38.58,17.1,56.06,5.49,61.84-.03,70.96,0,83.96c.13,49.08,.05,98.16,.05,147.24s-.11,98.73,.16,148.09c.03,5.17,1.31,10.86,3.72,15.39,6.96,13.05,22.73,17.04,36.89,9.98,30.93-15.42,61.85-30.89,92.71-46.45,3.26-1.65,6.07-1.93,9.61-.74,48.28,16.22,96.65,32.17,144.9,48.47,9.39,3.17,17.87,2.48,26.6-1.93,3.48-1.76,6.96-3.5,10.43-5.26v-35.2h.01Z"/>
    <path class="cls-1" d="M325.08,363.56v-4.74c-20.17-4.48-38.13-14.29-52.64-27.73v12.06c-1.78-.46-3.14-.73-4.44-1.16-33.7-11.26-67.38-22.58-101.11-33.74-2.76-.91-3.65-2.09-3.64-5.02,.09-78.01,.07-156.02,.07-234.03v-4.19c1.79,.46,3.15,.72,4.45,1.16,33.7,11.26,67.37,22.57,101.1,33.74,2.75,.91,3.65,2.07,3.65,5.01-.02,17.59-.02,35.17-.03,52.76,21.08-19.32,49.18-30.75,79.77-30.58,32.29,.18,62.23,14.4,83.44,37.13,0-44.95,.02-89.9,.01-134.85,0-23.48-20.37-36.04-41.43-25.54-30.8,15.37-61.61,30.73-92.34,46.25-3.2,1.62-5.87,1.73-9.2,.61C244.18,34.37,195.56,18.22,147.01,1.88c-8.56-2.88-16.59-2.52-24.67,1.53C87.29,21.03,52.21,38.58,17.1,56.06,5.49,61.84-.03,70.96,0,83.96c.13,49.08,.05,98.16,.05,147.24s-.11,98.73,.16,148.09c.03,5.17,1.31,10.86,3.72,15.39,6.96,13.05,22.73,17.04,36.89,9.98,30.93-15.42,61.85-30.89,92.71-46.45,3.26-1.65,6.07-1.93,9.61-.74,48.28,16.22,96.65,32.17,144.9,48.47,9.39,3.17,17.87,2.48,26.6-1.93,3.48-1.76,6.96-3.5,10.43-5.26v-35.2h.01Z"/>
    <path class="cls-1" d="M325.08,363.56v-4.74c-20.17-4.48-38.13-14.29-52.64-27.73v12.06c-1.78-.46-3.14-.73-4.44-1.16-33.7-11.26-67.38-22.58-101.11-33.74-2.76-.91-3.65-2.09-3.64-5.02,.09-78.01,.07-156.02,.07-234.03v-4.19c1.79,.46,3.15,.72,4.45,1.16,33.7,11.26,67.37,22.57,101.1,33.74,2.75,.91,3.65,2.07,3.65,5.01-.02,17.59-.02,35.17-.03,52.76,21.08-19.32,49.18-30.75,79.77-30.58,32.29,.18,62.23,14.4,83.44,37.13,0-44.95,.02-89.9,.01-134.85,0-23.48-20.37-36.04-41.43-25.54-30.8,15.37-61.61,30.73-92.34,46.25-3.2,1.62-5.87,1.73-9.2,.61C244.18,34.37,195.56,18.22,147.01,1.88c-8.56-2.88-16.59-2.52-24.67,1.53C87.29,21.03,52.21,38.58,17.1,56.06,5.49,61.84-.03,70.96,0,83.96c.13,49.08,.05,98.16,.05,147.24s-.11,98.73,.16,148.09c.03,5.17,1.31,10.86,3.72,15.39,6.96,13.05,22.73,17.04,36.89,9.98,30.93-15.42,61.85-30.89,92.71-46.45,3.26-1.65,6.07-1.93,9.61-.74,48.28,16.22,96.65,32.17,144.9,48.47,9.39,3.17,17.87,2.48,26.6-1.93,3.48-1.76,6.96-3.5,10.43-5.26v-35.2h.01Z"/>
    <path class="cls-1" d="M325.08,363.56v-4.74c-20.17-4.48-38.13-14.29-52.64-27.73v12.06c-1.78-.46-3.14-.73-4.44-1.16-33.7-11.26-67.38-22.58-101.11-33.74-2.76-.91-3.65-2.09-3.64-5.02,.09-78.01,.07-156.02,.07-234.03v-4.19c1.79,.46,3.15,.72,4.45,1.16,33.7,11.26,67.37,22.57,101.1,33.74,2.75,.91,3.65,2.07,3.65,5.01-.02,17.59-.02,35.17-.03,52.76,21.08-19.32,49.18-30.75,79.77-30.58,32.29,.18,62.23,14.4,83.44,37.13,0-44.95,.02-89.9,.01-134.85,0-23.48-20.37-36.04-41.43-25.54-30.8,15.37-61.61,30.73-92.34,46.25-3.2,1.62-5.87,1.73-9.2,.61C244.18,34.37,195.56,18.22,147.01,1.88c-8.56-2.88-16.59-2.52-24.67,1.53C87.29,21.03,52.21,38.58,17.1,56.06,5.49,61.84-.03,70.96,0,83.96c.13,49.08,.05,98.16,.05,147.24s-.11,98.73,.16,148.09c.03,5.17,1.31,10.86,3.72,15.39,6.96,13.05,22.73,17.04,36.89,9.98,30.93-15.42,61.85-30.89,92.71-46.45,3.26-1.65,6.07-1.93,9.61-.74,48.28,16.22,96.65,32.17,144.9,48.47,9.39,3.17,17.87,2.48,26.6-1.93,3.48-1.76,6.96-3.5,10.43-5.26v-35.2h.01Z"/>
    <path class="cls-1" d="M325.08,363.56v-4.74c-20.17-4.48-38.13-14.29-52.64-27.73v12.06c-1.78-.46-3.14-.73-4.44-1.16-33.7-11.26-67.38-22.58-101.11-33.74-2.76-.91-3.65-2.09-3.64-5.02,.09-78.01,.07-156.02,.07-234.03v-4.19c1.79,.46,3.15,.72,4.45,1.16,33.7,11.26,67.37,22.57,101.1,33.74,2.75,.91,3.65,2.07,3.65,5.01-.02,17.59-.02,35.17-.03,52.76,21.08-19.32,49.18-30.75,79.77-30.58,32.29,.18,62.23,14.4,83.44,37.13,0-44.95,.02-89.9,.01-134.85,0-23.48-20.37-36.04-41.43-25.54-30.8,15.37-61.61,30.73-92.34,46.25-3.2,1.62-5.87,1.73-9.2,.61C244.18,34.37,195.56,18.22,147.01,1.88c-8.56-2.88-16.59-2.52-24.67,1.53C87.29,21.03,52.21,38.58,17.1,56.06,5.49,61.84-.03,70.96,0,83.96c.13,49.08,.05,98.16,.05,147.24s-.11,98.73,.16,148.09c.03,5.17,1.31,10.86,3.72,15.39,6.96,13.05,22.73,17.04,36.89,9.98,30.93-15.42,61.85-30.89,92.71-46.45,3.26-1.65,6.07-1.93,9.61-.74,48.28,16.22,96.65,32.17,144.9,48.47,9.39,3.17,17.87,2.48,26.6-1.93,3.48-1.76,6.96-3.5,10.43-5.26v-35.2h.01Z"/>
    <path class="cls-1" d="M325.08,363.56v-4.74c-20.17-4.48-38.13-14.29-52.64-27.73v12.06c-1.78-.46-3.14-.73-4.44-1.16-33.7-11.26-67.38-22.58-101.11-33.74-2.76-.91-3.65-2.09-3.64-5.02,.09-78.01,.07-156.02,.07-234.03v-4.19c1.79,.46,3.15,.72,4.45,1.16,33.7,11.26,67.37,22.57,101.1,33.74,2.75,.91,3.65,2.07,3.65,5.01-.02,17.59-.02,35.17-.03,52.76,21.08-19.32,49.18-30.75,79.77-30.58,32.29,.18,62.23,14.4,83.44,37.13,0-44.95,.02-89.9,.01-134.85,0-23.48-20.37-36.04-41.43-25.54-30.8,15.37-61.61,30.73-92.34,46.25-3.2,1.62-5.87,1.73-9.2,.61C244.18,34.37,195.56,18.22,147.01,1.88c-8.56-2.88-16.59-2.52-24.67,1.53C87.29,21.03,52.21,38.58,17.1,56.06,5.49,61.84-.03,70.96,0,83.96c.13,49.08,.05,98.16,.05,147.24s-.11,98.73,.16,148.09c.03,5.17,1.31,10.86,3.72,15.39,6.96,13.05,22.73,17.04,36.89,9.98,30.93-15.42,61.85-30.89,92.71-46.45,3.26-1.65,6.07-1.93,9.61-.74,48.28,16.22,96.65,32.17,144.9,48.47,9.39,3.17,17.87,2.48,26.6-1.93,3.48-1.76,6.96-3.5,10.43-5.26v-35.2h.01Z"/>
  </g>
</svg>