<?xml version="1.0" encoding="UTF-8"?>
<svg id="_图层_1" data-name="图层 1" xmlns="http://www.w3.org/2000/svg" viewBox="0 0 568.1 525.01">
  <defs>
    <style>
      .cls-1 {
        fill: #3491cf;
      }
    </style>
  </defs>
  <path class="cls-1" d="M512,32.06c0-11.1-5.7-21.4-15.2-27.2-9.5-5.8-21.2-6.4-31.1-1.4l-116.2,58.1L170.1,1.66c-8.1-2.7-16.8-2.1-24.4,1.7L17.7,67.36C6.8,72.86,0,83.96,0,96.06V448.06c0,11.1,5.7,21.4,15.2,27.2s21.2,6.4,31.1,1.4l116.1-58.1,173.3,57.8c-4.3-6.4-8.5-13.1-12.6-19.9-11-18.3-21.9-39.3-30-61.8l-101.2-33.7V76.46l128,42.7v99.3c31-35.8,77-58.4,128-58.4,22.6,0,44.2,4.4,64,12.5l.1-140.5Zm-64,176c-66.3,0-120,52.8-120,117.9,0,68.9,64.1,150.4,98.6,189.3,11.6,13,31.3,13,42.9,0,34.5-38.9,98.6-120.4,98.6-189.3,0-65.1-53.7-117.9-120-117.9h-.1Zm-40,120c0-22.1,17.9-40,40-40s40,17.9,40,40-17.9,40-40,40-40-17.9-40-40Z"/>
</svg>