<?xml version="1.0" encoding="UTF-8"?>
<svg id="_图层_1" data-name="图层 1" xmlns="http://www.w3.org/2000/svg" viewBox="0 0 307 531">
  <defs>
    <style>
      .cls-1 {
        fill: #2899f4;
        stroke: #0070c0;
        stroke-miterlimit: 10;
        stroke-width: 19px;
      }
    </style>
  </defs>
  <path class="cls-1" d="M185.5,293.9c64.1-14.5,112-71.9,112-140.4,0-79.5-64.5-144-144-144S9.5,74,9.5,153.5c0,68.5,47.9,125.9,112,140.4v195.6c0,17.7,14.3,32,32,32s32-14.3,32-32v-195.6Zm-24-188.4c-30.9,0-56,25.1-56,56,0,13.3-10.7,24-24,24s-24-10.7-24-24c0-57.4,46.6-104,104-104,13.3,0,24,10.7,24,24s-10.7,24-24,24Z"/>
</svg>